<svg width="29" height="29" viewBox="0 0 29 29" fill="none" xmlns="http://www.w3.org/2000/svg">
<path d="M28.0958 14.9095C28.0016 15.4442 27.8543 16.1093 27.4654 16.6717C27.0943 17.2079 26.5311 17.3499 25.9007 17.2357C25.6353 17.1879 25.3707 17.1362 25.106 17.086C24.907 17.0482 24.7596 17.0976 24.6431 17.2851C24.4811 17.5466 24.3029 17.8012 24.103 18.0358C23.9364 18.2318 23.9395 18.4 24.0645 18.609C24.218 18.8652 24.3553 19.1314 24.4865 19.3999C24.8129 20.068 24.647 20.8087 24.0622 21.2685C23.7667 21.5008 23.4634 21.7245 23.1502 21.9313C22.4998 22.3595 21.7483 22.2792 21.1959 21.7322C20.9907 21.5285 20.7908 21.3195 20.6003 21.1019C20.4483 20.9283 20.2955 20.8743 20.0679 20.9699C19.794 21.0857 19.5062 21.1752 19.2169 21.2477C18.96 21.3117 18.8535 21.4606 18.8311 21.7137C18.8049 22.0108 18.7625 22.307 18.71 22.601C18.5781 23.3409 17.9222 23.8756 17.1924 23.8486C16.8421 23.8354 16.5836 23.6194 16.5443 23.3054C16.4995 22.9497 16.6893 22.638 17.0535 22.5825C17.3768 22.5331 17.4562 22.3587 17.4763 22.0763C17.4964 21.7986 17.5396 21.5208 17.5943 21.2477C17.7124 20.6606 18.0611 20.2648 18.6298 20.0719C19.0217 19.9392 19.4183 19.818 19.8117 19.6884C20.3873 19.4986 20.8988 19.6205 21.3402 20.0202C21.5678 20.227 21.7799 20.4538 21.9805 20.6876C22.1696 20.9075 22.3555 20.9275 22.58 20.7539C22.7552 20.6181 22.9319 20.4831 23.1186 20.3643C23.3601 20.21 23.3631 20.0233 23.2351 19.7964C23.0931 19.5449 22.9542 19.2903 22.8254 19.0318C22.5361 18.4509 22.587 17.8977 22.9758 17.3753C23.2003 17.0737 23.4218 16.7705 23.6378 16.4626C24.0344 15.8971 24.5752 15.6888 25.248 15.7976C25.5427 15.8454 25.8359 15.9002 26.1306 15.9495C26.3343 15.9835 26.4609 15.9009 26.521 15.7003C26.599 15.4419 26.6923 15.1888 26.7703 14.9303C26.8243 14.7506 26.7733 14.614 26.5889 14.5299C26.3174 14.4057 26.0512 14.2684 25.7835 14.1364C25.1678 13.8332 24.8646 13.341 24.8746 12.6528C24.88 12.2577 24.8707 11.8619 24.8754 11.4669C24.8831 10.8512 25.1724 10.4014 25.7063 10.1098C25.9509 9.97629 26.2086 9.86519 26.4616 9.7456C26.8003 9.58512 26.8374 9.51337 26.7317 9.16309C26.6592 8.92314 26.5766 8.68705 26.4964 8.44941C26.4377 8.27582 26.3235 8.21101 26.1384 8.24804C25.8174 8.31208 25.4949 8.3684 25.1709 8.41932C24.5629 8.51499 24.0706 8.30514 23.6988 7.82292C23.4457 7.49502 23.2057 7.15709 22.9635 6.8207C22.5685 6.2729 22.5438 5.69965 22.8555 5.10711C22.9812 4.86793 23.107 4.62953 23.2397 4.39421C23.3639 4.17509 23.35 3.99763 23.124 3.85027C22.9388 3.72914 22.7583 3.59875 22.5877 3.45679C22.3679 3.27393 22.1865 3.27625 21.9975 3.50616C21.8324 3.70676 21.6403 3.88422 21.4621 4.07479C20.9907 4.57938 20.3688 4.7252 19.7207 4.49373C19.3943 4.37723 19.0634 4.27385 18.7316 4.17123C18.0688 3.96677 17.6684 3.53703 17.5751 2.83956C17.5403 2.58186 17.4925 2.32571 17.4686 2.06724C17.4447 1.81109 17.3544 1.66527 17.062 1.65833C16.802 1.65139 16.5443 1.64058 16.2835 1.66296C16.0598 1.68225 15.9579 1.77946 15.9371 2.00166C15.9093 2.29871 15.8692 2.59498 15.8183 2.88893C15.7149 3.48765 15.3885 3.91431 14.8091 4.12108C14.3917 4.26999 13.9704 4.40964 13.5461 4.53463C12.9589 4.70745 12.4389 4.56549 12.0015 4.14423C11.7723 3.92357 11.5594 3.6867 11.3433 3.45293C11.2006 3.29939 11.0579 3.28242 10.8874 3.41204C10.6729 3.5756 10.4514 3.73068 10.2308 3.88499C10.051 4.01075 10.0086 4.15271 10.1266 4.35177C10.2794 4.60869 10.4175 4.8741 10.5517 5.14106C10.865 5.76214 10.8033 6.34697 10.3774 6.90016C10.1544 7.19026 9.94994 7.49502 9.73159 7.78898C9.34582 8.30899 8.83275 8.5258 8.19083 8.42087C7.88684 8.37149 7.58209 8.32134 7.28119 8.25576C7.09987 8.21641 6.9718 8.26039 6.91085 8.43476C6.80978 8.72563 6.71488 9.01881 6.62769 9.31431C6.57754 9.48559 6.64081 9.61058 6.80978 9.68773C7.09062 9.81581 7.3676 9.95083 7.64458 10.0866C7.83669 10.1807 8.0126 10.2996 8.14685 10.4693C8.34977 10.7262 8.34437 11.0541 8.13914 11.2933C7.93082 11.5356 7.59212 11.612 7.33134 11.4299C6.97103 11.1799 6.56906 11.0179 6.18329 10.8227C5.45187 10.4523 5.13939 9.75254 5.3724 8.96172C5.47579 8.61067 5.58689 8.26116 5.71805 7.92014C5.99117 7.21032 6.65315 6.84153 7.40232 6.96652C7.7063 7.01667 8.01183 7.06296 8.31273 7.12777C8.4871 7.16557 8.60978 7.12468 8.71239 6.97963C8.91839 6.68799 9.12748 6.40021 9.34119 6.11397C9.45461 5.96197 9.4469 5.81538 9.36048 5.65644C9.20386 5.36866 9.04415 5.08165 8.90142 4.78692C8.58586 4.13188 8.75714 3.39275 9.33116 2.94526C9.63515 2.70839 9.94531 2.4777 10.2686 2.26862C10.9174 1.8489 11.6466 1.93223 12.1974 2.47616C12.4104 2.68602 12.6195 2.89973 12.8208 3.1204C12.962 3.2747 13.1132 3.31405 13.3123 3.2423C13.6294 3.12811 13.9511 3.0255 14.2744 2.93137C14.4357 2.8843 14.5144 2.79095 14.5367 2.62893C14.5823 2.29485 14.6286 1.96154 14.6864 1.62901C14.8068 0.932311 15.3129 0.461672 16.0111 0.374489C16.5026 0.313537 16.9933 0.324339 17.4817 0.388376C18.0928 0.468616 18.6043 0.994806 18.7108 1.64598C18.7601 1.94997 18.7972 2.25627 18.8342 2.5618C18.8589 2.76626 18.9523 2.89048 19.1621 2.9468C19.4684 3.02935 19.7701 3.13197 20.0694 3.23998C20.2646 3.31019 20.4197 3.28782 20.5648 3.13043C20.78 2.89665 21.003 2.66827 21.2306 2.44607C21.7329 1.95537 22.4334 1.86202 23.0406 2.21384C23.4334 2.44144 23.8006 2.70994 24.137 3.01392C24.6616 3.48765 24.792 4.16814 24.4865 4.80621C24.3407 5.11019 24.1756 5.40492 24.0112 5.69965C23.9318 5.84238 23.9318 5.96197 24.0359 6.09699C24.2535 6.37938 24.4634 6.66793 24.6663 6.96112C24.7735 7.1162 24.8962 7.16866 25.0844 7.127C25.3853 7.05987 25.6901 7.01512 25.9941 6.96112C26.6198 6.85079 27.2478 7.11002 27.5518 7.6609C27.8273 8.16009 28.0078 8.70865 28.0803 9.27342C28.1675 9.95469 27.8489 10.4932 27.2332 10.8111C26.9593 10.9523 26.6815 11.0881 26.4007 11.2146C26.2371 11.2879 26.1708 11.3975 26.1754 11.5749C26.1839 11.9314 26.1839 12.2886 26.1769 12.645C26.1731 12.824 26.2487 12.9321 26.4076 13.0054C26.7054 13.1427 27.0048 13.2777 27.2918 13.4351C27.8234 13.719 28.0958 14.1889 28.0958 14.9095Z" fill="black"/>
<path d="M3.65418 14.3802C4.09164 14.3455 4.43884 14.5793 4.74437 14.8647C4.99743 15.1008 5.20497 15.0939 5.53288 14.9774C6.03824 14.7984 6.23884 14.5338 6.27818 13.9906C6.33836 13.1658 6.91779 12.7091 7.74179 12.7021C7.95397 12.7006 8.16614 12.7006 8.37831 12.7029C9.19229 12.7114 9.77248 13.1612 9.83112 13.9674C9.87278 14.5469 10.1004 14.8316 10.6405 14.9967C10.9236 15.0831 11.1157 15.1024 11.331 14.8933C12.0794 14.1665 12.9883 14.192 13.6626 14.9589C13.8153 15.1325 13.9897 15.2876 14.1348 15.4665C14.5676 16.002 14.5429 16.6779 14.0484 17.292C13.8038 17.5968 13.6641 17.8329 13.8447 18.2796C14.0476 18.7803 14.3361 18.9269 14.8176 18.9601C15.5104 19.0079 16.0027 19.487 16.0929 20.1691C16.1431 20.551 16.1462 20.9414 16.0891 21.3233C15.9803 22.0501 15.5066 22.4821 14.6656 22.5485C14.252 22.5809 14.0676 22.7306 13.894 23.111C13.6896 23.5584 13.7444 23.8455 14.0553 24.205C14.6285 24.8693 14.5745 25.5899 13.965 26.2249C13.7714 26.4263 13.5754 26.6284 13.3586 26.8028C12.8208 27.2333 12.1511 27.2665 11.6342 26.8151C11.2191 26.4533 10.8658 26.319 10.3442 26.6145C10.0757 26.7665 9.8751 26.8753 9.88359 27.204C9.8859 27.2904 9.87047 27.3768 9.86121 27.4632C9.78174 28.2016 9.32036 28.6776 8.58817 28.781C8.18311 28.8381 7.77883 28.825 7.3784 28.7563C6.75808 28.6506 6.30519 28.1452 6.26738 27.4192C6.24269 26.9486 6.0691 26.7233 5.62623 26.5497C5.22426 26.3915 4.97043 26.434 4.64947 26.7002C3.89336 27.3259 3.22212 27.2765 2.52079 26.5952C2.35491 26.434 2.19674 26.265 2.04398 26.0914C1.57951 25.5629 1.51625 24.85 1.9892 24.3254C2.38963 23.8809 2.45212 23.4998 2.16665 22.9744C2.02083 22.7067 1.88196 22.5902 1.58954 22.5678C0.471583 22.4821 0.00865975 21.9745 0.000944363 20.8588C0.000172824 20.6852 -0.00291333 20.5116 0.00865975 20.338C0.0588098 19.5611 0.571883 19.0071 1.34265 18.9616C1.81252 18.9338 2.09027 18.795 2.2631 18.3035C2.4066 17.8969 2.37034 17.6461 2.10262 17.3314C1.48693 16.6053 1.53322 15.9156 2.19906 15.2289C2.36031 15.063 2.52388 14.8995 2.69439 14.7428C2.95825 14.4975 3.26918 14.3602 3.65418 14.3802ZM3.74291 17.812C3.73056 17.917 3.73905 18.0304 3.70202 18.1253C3.51916 18.5913 3.34557 19.0627 3.12645 19.511C2.95208 19.8674 2.618 20.058 2.23378 20.139C1.99846 20.1884 1.75774 20.21 1.5201 20.2455C1.44372 20.257 1.34728 20.2647 1.33031 20.3519C1.28093 20.6089 1.25778 20.8781 1.33494 21.1235C1.39897 21.3272 1.63121 21.2631 1.79477 21.2747C2.59254 21.3302 3.13571 21.6983 3.36022 22.4937C3.41732 22.6959 3.52842 22.8826 3.60943 23.0778C3.81775 23.577 3.79074 24.0561 3.46824 24.502C3.3556 24.6579 3.23832 24.8122 3.11179 24.9572C2.99066 25.0969 2.98217 25.2041 3.1195 25.3515C3.60326 25.8731 3.60017 25.8823 4.15337 25.4433C4.5538 25.1262 4.99666 24.9503 5.49739 25.1146C5.93485 25.2589 6.36228 25.4441 6.77737 25.6447C7.12225 25.8113 7.34368 26.1107 7.43241 26.4857C7.4895 26.7279 7.51573 26.9787 7.54737 27.2271C7.56125 27.3382 7.57977 27.4262 7.70707 27.4701C8.26181 27.6638 8.56657 27.4779 8.61595 26.9062C8.6198 26.8583 8.62058 26.8097 8.62675 26.7619C8.71085 26.1701 9.00326 25.7427 9.58191 25.5305C9.85272 25.431 10.1189 25.316 10.382 25.1972C10.9059 24.9619 11.395 25.0221 11.8533 25.3569C12.0169 25.4765 12.1735 25.6053 12.3294 25.7334C12.4273 25.8137 12.5145 25.8214 12.6087 25.728C12.6982 25.6401 12.7977 25.5637 12.8849 25.4734C13.1757 25.174 13.1734 25.1725 12.9096 24.8369C12.8378 24.7458 12.7676 24.654 12.6974 24.5622C12.3294 24.0792 12.2792 23.5646 12.533 23.013C12.6457 22.7684 12.7445 22.5169 12.8432 22.2661C13.0646 21.7029 13.4628 21.375 14.0738 21.3179C14.2366 21.3025 14.3994 21.2801 14.5614 21.2585C14.6818 21.2423 14.7775 21.2083 14.806 21.061C14.9279 20.4229 14.8199 20.2601 14.1834 20.1907C13.4921 20.1151 13.0199 19.7764 12.7985 19.1028C12.7236 18.8744 12.6195 18.6561 12.5199 18.4362C12.2838 17.9154 12.3286 17.4239 12.6634 16.9618C12.7823 16.7982 12.9103 16.6408 13.0376 16.4834C13.1117 16.3924 13.1387 16.3145 13.06 16.2018C12.6658 15.6394 12.513 15.6108 11.9791 16.0236C11.9258 16.0645 11.8726 16.1069 11.8178 16.1455C11.3819 16.4533 10.919 16.5158 10.4229 16.3052C10.1127 16.1733 9.79794 16.0521 9.48933 15.9171C9.06653 15.732 8.77951 15.4218 8.67844 14.965C8.62443 14.7212 8.59974 14.4713 8.56348 14.2236C8.55191 14.1464 8.55191 14.0508 8.46395 14.0323C8.19854 13.9744 7.92002 13.9574 7.6631 14.0323C7.46867 14.0894 7.57283 14.3216 7.52268 14.4689C7.4949 14.5492 7.5003 14.6402 7.4895 14.7259C7.42083 15.2482 7.18088 15.6594 6.6925 15.887C6.34376 16.0498 5.98423 16.1895 5.62701 16.3338C5.26824 16.4788 4.90947 16.4618 4.55997 16.3021C4.29379 16.1802 4.07621 15.9858 3.85478 15.8006C3.6997 15.6702 3.56931 15.6633 3.43275 15.8199C3.36948 15.8924 3.29464 15.9542 3.22675 16.0228C2.94437 16.3098 2.94514 16.3098 3.19589 16.6277C3.47055 16.9803 3.75911 17.3236 3.74291 17.812Z" fill="black"/>
<path d="M12.4065 12.2231C12.415 12.3288 12.4258 12.4337 12.432 12.5394C12.4528 12.9174 12.2175 13.2114 11.8634 13.2531C11.5239 13.2932 11.2183 13.0748 11.1597 12.7153C11.0208 11.8674 11.1489 11.0403 11.4367 10.2433C12.2892 7.88083 14.4681 6.42725 16.9918 6.51752C19.6798 6.6132 21.9998 8.86532 22.2622 11.5387C22.5492 14.469 20.4745 17.184 17.5403 17.6261C17.1036 17.6917 16.6631 17.7318 16.2171 17.6647C15.7666 17.5968 15.5174 17.3507 15.5505 16.9564C15.5829 16.5668 15.9178 16.3215 16.363 16.3685C17.0597 16.4426 17.7255 16.3176 18.3667 16.053C19.939 15.4026 21.0038 13.7978 20.9976 12.0973C20.9899 9.87526 19.264 8.01045 17.0435 7.82451C14.8801 7.64397 12.8926 9.1585 12.4883 11.3026C12.4297 11.6051 12.3865 11.9121 12.4065 12.2231Z" fill="black"/>
<path d="M8.04656 23.851C6.32988 23.8487 4.93263 22.453 4.93185 20.7394C4.93108 19.0436 6.35457 17.6255 8.05659 17.6255C9.76477 17.6255 11.1798 19.0312 11.1852 20.734C11.1913 22.4545 9.78252 23.8526 8.04656 23.851ZM8.04964 22.5502C9.0673 22.5525 9.8805 21.754 9.88513 20.7471C9.88976 19.7572 9.0565 18.9286 8.05582 18.9294C7.06207 18.9302 6.25736 19.7295 6.24579 20.7278C6.23421 21.7432 7.03044 22.5479 8.04964 22.5502Z" fill="black"/>
</svg>
