<svg width="33" height="26" viewBox="0 0 33 26" fill="none" xmlns="http://www.w3.org/2000/svg">
<path d="M15.3257 26.0012C11.2172 26.0012 7.10789 26.0021 2.99948 26.0012C1.35271 26.0012 0.361809 25.0027 0.361809 23.3446C0.361809 17.702 0.360862 12.0595 0.362755 6.41691C0.362755 5.14209 1.09623 4.16917 2.25086 3.92215C2.52532 3.86347 2.81304 3.8436 3.09507 3.84265C7.4874 3.83792 11.8788 3.83887 16.2711 3.84076C16.4235 3.84076 16.5797 3.85212 16.7282 3.88335C17.0832 3.95906 17.2753 4.21459 17.2649 4.5695C17.2545 4.90643 17.0585 5.14682 16.7122 5.2036C16.4926 5.23957 16.2664 5.24809 16.0421 5.24809C11.7567 5.25092 7.47037 5.24998 3.18498 5.24998C3.03166 5.24998 2.87739 5.24619 2.72502 5.25566C2.16663 5.28973 1.77197 5.67587 1.74926 6.23047C1.73317 6.63175 1.75021 7.03493 1.74264 7.43715C1.7379 7.64915 1.82687 7.74285 2.03697 7.73433C2.15433 7.7296 2.27263 7.73433 2.39093 7.73528C6.99527 7.73528 11.5996 7.73528 16.2049 7.73528C16.3932 7.73528 16.5825 7.72487 16.768 7.77976C17.1172 7.88292 17.3075 8.17158 17.2639 8.535C17.2251 8.85962 16.9904 9.08109 16.6459 9.10758C16.5172 9.118 16.3866 9.11232 16.256 9.11232C11.5807 9.11232 6.90536 9.11232 2.23004 9.11232C1.74547 9.11232 1.74453 9.11326 1.74453 9.59783C1.74453 14.188 1.74453 18.7772 1.74453 23.3673C1.74453 24.256 2.10322 24.6166 2.98812 24.6166C11.2059 24.6175 19.4227 24.6175 27.6405 24.6166C28.4866 24.6166 28.8509 24.256 28.8519 23.4137C28.8538 21.2132 28.8538 19.0128 28.8519 16.8124C28.8519 16.4244 28.8434 16.4196 28.5225 16.6117C27.7417 17.0783 26.9581 17.5402 26.1849 18.0191C25.8338 18.2368 25.5167 18.2415 25.1618 18.0229C24.0554 17.3414 22.9178 16.7102 21.8323 15.9985C19.6432 14.5637 18.5435 12.4958 18.5047 9.88554C18.4734 7.75704 18.4971 5.62665 18.499 3.49815C18.499 2.90191 18.6069 2.74197 19.171 2.51577C21.1755 1.71037 23.1828 0.912536 25.1845 0.100507C25.5262 -0.0386163 25.8366 -0.0300986 26.1745 0.106186C28.1657 0.912536 30.1617 1.70658 32.1558 2.50725C32.7332 2.73913 32.841 2.90002 32.841 3.51803C32.842 5.62381 32.8505 7.7296 32.8392 9.83538C32.8278 11.9241 32.0896 13.7167 30.5696 15.159C30.3122 15.4032 30.2214 15.6473 30.2232 15.9918C30.2356 18.4876 30.2308 20.9842 30.2289 23.4799C30.228 24.9895 29.2286 26.0002 27.7238 26.0012C23.5907 26.004 19.4587 26.0012 15.3257 26.0012ZM31.4583 7.14282C31.4583 6.13772 31.4479 5.13262 31.465 4.12752C31.4706 3.82088 31.3722 3.66662 31.0807 3.5521C29.3999 2.89339 27.7247 2.2186 26.0524 1.53907C25.794 1.43401 25.5669 1.42644 25.3057 1.53244C23.622 2.2167 21.9364 2.89529 20.2451 3.55967C19.9716 3.66756 19.8713 3.80858 19.8732 4.1067C19.8865 6.05822 19.8571 8.00974 19.8865 9.96031C19.9177 12.0812 20.8546 13.7308 22.6263 14.8817C23.5264 15.4666 24.4671 15.99 25.3833 16.5512C25.5934 16.6799 25.7618 16.6723 25.9691 16.5455C26.8748 15.99 27.8023 15.4694 28.6957 14.894C30.4845 13.7394 31.4063 12.0775 31.4555 9.94611C31.4763 9.012 31.4583 8.07693 31.4583 7.14282Z" fill="black"/>
<path d="M7.53469 22.1C6.71036 22.1 5.88508 22.1028 5.06075 22.0991C4.57996 22.0962 4.27427 21.836 4.26102 21.4347C4.24777 21.0249 4.56388 20.7249 5.05791 20.723C6.70752 20.7154 8.35618 20.7154 10.0058 20.723C10.5008 20.7249 10.8178 21.023 10.8065 21.4318C10.7942 21.8445 10.4837 22.0972 9.97361 22.1C9.16064 22.1019 8.34766 22.1 7.53469 22.1Z" fill="black"/>
<path d="M23.0408 7.8649C23.304 7.87058 23.4724 7.97185 23.6191 8.11854C23.9286 8.42707 24.2494 8.7252 24.5419 9.04982C24.7378 9.26655 24.8665 9.27128 25.0757 9.0555C25.9322 8.17438 26.8076 7.31219 27.6726 6.44054C27.8449 6.26734 28.0247 6.1339 28.2878 6.14715C28.7657 6.17081 29.0667 6.64307 28.8793 7.086C28.8083 7.25446 28.6825 7.37844 28.5566 7.50431C27.5382 8.52455 26.5218 9.54574 25.5015 10.5641C24.9545 11.1102 24.6564 11.1064 24.1027 10.5518C23.6021 10.0502 23.0986 9.55047 22.6036 9.04319C22.3859 8.81984 22.3235 8.552 22.4645 8.26145C22.5913 8.00118 22.808 7.88004 23.0408 7.8649Z" fill="black"/>
</svg>
