<svg width="30" height="29" viewBox="0 0 30 29" fill="none" xmlns="http://www.w3.org/2000/svg">
<path d="M0.844971 8.49037C1.15304 7.63802 1.76548 7.2996 2.66229 7.30405C6.24658 7.32256 9.83086 7.31145 13.4159 7.31145C13.6761 7.31145 13.8064 7.17791 13.8069 6.91083C13.8069 5.35868 13.8047 3.80654 13.8084 2.25514C13.8099 1.45611 14.2498 0.851097 14.9599 0.646711C15.0955 0.607463 15.2325 0.599317 15.371 0.599317C18.0688 0.599317 20.7659 0.598577 23.4637 0.599317C23.8251 0.599317 24.0066 0.754828 23.9969 1.0466C23.9895 1.28134 23.8377 1.44426 23.6022 1.46499C23.5104 1.47314 23.4178 1.4687 23.3253 1.4687C20.757 1.4687 18.1888 1.4687 15.6205 1.4687C15.4154 1.4687 15.2103 1.47388 15.0303 1.58422C14.8281 1.70863 14.7185 1.89746 14.7185 2.13813C14.717 3.7821 14.7185 5.42681 14.7141 7.07078C14.7141 7.22703 14.7681 7.29294 14.9244 7.33293C15.8523 7.56842 16.2633 8.1053 16.2648 9.06428C16.2663 9.90478 16.2737 10.746 16.2604 11.5865C16.2567 11.842 16.3389 11.9175 16.5929 11.9168C19.0782 11.9086 21.5627 11.916 24.048 11.9072C24.3583 11.9057 24.5953 11.9886 24.8078 12.2182C25.17 12.6099 25.5558 12.9809 25.9964 13.4267C25.9964 13.0594 25.9942 12.7788 25.9964 12.4988C26.0001 12.0723 26.1557 11.9175 26.5852 11.9138C26.9362 11.9109 27.2872 11.916 27.6382 11.9116C28.0744 11.9064 28.3225 11.6776 28.3699 11.2429C28.3788 11.1607 28.3758 11.077 28.3758 10.9941C28.3758 8.13936 28.3758 5.28537 28.3758 2.43064C28.3758 2.3751 28.3766 2.31956 28.3744 2.26402C28.3544 1.74047 28.1033 1.48351 27.5775 1.47388C27.0606 1.46351 26.543 1.47314 26.0253 1.47018C25.695 1.46796 25.5003 1.29837 25.5092 1.02808C25.5173 0.765195 25.7047 0.603761 26.0172 0.60228C26.5992 0.599317 27.1813 0.594874 27.7634 0.603761C28.578 0.61635 29.2408 1.2769 29.2423 2.09592C29.2482 5.16318 29.2475 8.22971 29.2423 11.297C29.2408 12.1367 28.5773 12.7758 27.6871 12.818C27.5116 12.8262 27.3361 12.8269 27.1606 12.8195C26.9703 12.8113 26.8947 12.8928 26.8984 13.0816C26.9051 13.46 26.9007 13.8392 26.8999 14.2176C26.8999 14.3005 26.9014 14.3842 26.8925 14.4664C26.8703 14.6775 26.7666 14.8293 26.5607 14.9026C26.3675 14.9707 26.2171 14.8907 26.086 14.7604C25.5166 14.1939 24.9434 13.6296 24.3835 13.0535C24.2235 12.8891 24.0591 12.815 23.8259 12.8158C21.4331 12.8232 19.0404 12.8202 16.6477 12.8202C16.2655 12.8202 16.2648 12.8217 16.2641 13.2046C16.2641 13.5741 16.2641 13.9436 16.2641 14.3131C16.2648 14.6834 16.2655 14.6841 16.6284 14.6841C18.7531 14.6841 20.8777 14.6819 23.0031 14.6864C23.78 14.6878 24.3968 15.1655 24.5575 15.8942C24.6064 16.1171 24.6175 16.3525 24.6183 16.5821C24.622 19.4087 24.6227 22.236 24.6197 25.0626C24.619 25.9957 24.2398 26.5977 23.5274 26.8317C23.212 26.9354 22.8868 26.9169 22.5654 26.9043C22.3262 26.8947 22.2337 26.9717 22.2433 27.2183C22.2596 27.6241 22.2455 28.0314 22.2477 28.4372C22.2485 28.6742 22.1804 28.8734 21.9649 29H21.5768C20.957 28.3794 20.3319 27.7641 19.721 27.1346C19.5595 26.968 19.3937 26.9028 19.1626 26.9036C16.4018 26.9102 13.641 26.9088 10.8802 26.9073C10.7329 26.9073 10.5825 26.9073 10.4396 26.8791C9.64721 26.7214 9.15622 26.0845 9.15474 25.2092C9.15178 23.4275 9.14955 21.6451 9.15844 19.8634C9.15992 19.6116 9.08513 19.5264 8.82741 19.5301C7.9506 19.5442 7.07304 19.5398 6.19622 19.5316C6.00442 19.5301 5.86741 19.5923 5.73485 19.7271C5.1787 20.2944 4.61217 20.8498 4.0538 21.4148C3.88791 21.5829 3.71536 21.7088 3.46802 21.611C3.22067 21.5133 3.17476 21.2985 3.17253 21.066C3.16957 20.6691 3.15698 20.2714 3.1755 19.8752C3.18809 19.6064 3.09107 19.4983 2.8267 19.5338C2.77264 19.5413 2.71561 19.5316 2.66081 19.5353C1.764 19.5909 1.1523 19.208 0.844971 18.3564L0.844971 8.49037ZM21.2702 27.4486L21.3413 27.4093C21.3413 27.1428 21.3398 26.8762 21.3413 26.6096C21.345 26.1771 21.5094 26.0105 21.9471 26.0023C22.2515 25.9972 22.5566 26.0016 22.8609 26.0009C23.4978 25.9994 23.72 25.7757 23.72 25.13C23.72 22.2397 23.72 19.3495 23.72 16.4592C23.72 15.8171 23.4956 15.5913 22.8572 15.5913C18.8775 15.5913 14.897 15.5913 10.9173 15.5913C10.2678 15.5913 10.0612 15.8009 10.0612 16.457C10.0612 19.3472 10.0612 22.2375 10.0612 25.1278C10.0612 25.7987 10.2641 26.0001 10.9373 26.0001C13.7351 26.0001 16.5329 26.0046 19.3314 25.9949C19.6921 25.9935 19.9668 26.0942 20.209 26.3637C20.5474 26.7392 20.9147 27.088 21.2695 27.4486H21.2702ZM4.07601 20.0389L4.1434 20.0752C4.49961 19.716 4.86989 19.3694 5.20758 18.9933C5.45863 18.7141 5.74374 18.6126 6.11328 18.623C6.84273 18.643 7.57291 18.6393 8.30236 18.6267C9.33099 18.6082 9.12956 18.8326 9.15474 17.7136C9.15918 17.5181 9.08587 17.4915 8.9222 17.5729C8.75854 17.6551 8.58969 17.7514 8.39567 17.6744C7.72324 17.4085 7.08711 17.0723 6.49689 16.6547C6.27176 16.4955 6.26657 16.2281 6.45393 16.0252C6.63315 15.8305 6.83384 15.8268 7.05082 15.9645C7.45665 16.2222 7.87062 16.4651 8.3068 16.6673C8.67634 16.8383 9.11771 16.5888 9.15844 16.1933C9.24509 15.3499 9.81013 14.756 10.6018 14.6915C10.8402 14.6723 11.0817 14.6804 11.3216 14.6849C11.4616 14.6878 11.5704 14.6471 11.6593 14.5353C12.2177 13.8362 12.5894 13.0683 12.5272 12.1471C12.4783 11.4266 12.134 10.8786 11.4801 10.5646C10.8158 10.2462 10.1574 10.2802 9.53538 10.7001C9.2673 10.8808 9.10142 11.1466 8.92591 11.4088C8.70522 11.7391 8.3616 11.7324 8.13647 11.4043C8.10019 11.351 8.06908 11.294 8.03502 11.2392C7.61216 10.5638 6.87753 10.2506 6.05181 10.3913C5.36532 10.5083 4.7277 11.1333 4.57959 11.8487C4.40926 12.6692 4.66549 13.3986 5.08687 14.0851C5.2024 14.2731 5.35125 14.4412 5.47122 14.6264C5.6097 14.8404 5.55638 15.0344 5.36828 15.1907C5.17277 15.3536 4.94913 15.3388 4.77213 15.1559C4.70178 15.0833 4.64031 15.0011 4.57959 14.9196C3.88273 13.9903 3.47912 12.9617 3.68352 11.7902C3.8731 10.7038 4.52257 9.94032 5.57712 9.60042C6.6176 9.26496 7.56625 9.49008 8.36605 10.2521C8.47935 10.3602 8.54304 10.3928 8.67708 10.2691C9.59537 9.42418 10.7514 9.22497 11.8007 9.71668C12.8501 10.2084 13.4907 11.2792 13.4337 12.4803C13.4003 13.1853 13.1811 13.8392 12.8109 14.439C12.7042 14.6116 12.6783 14.6886 12.9316 14.6856C13.6521 14.676 14.3727 14.6782 15.0925 14.6849C15.2791 14.6864 15.3569 14.6271 15.3569 14.4309C15.3517 12.5744 15.3554 10.7179 15.3502 8.86137C15.3495 8.5585 15.1799 8.32375 14.9148 8.25414C14.7748 8.21712 14.6223 8.2186 14.4756 8.2186C10.5129 8.21712 6.55095 8.21712 2.58824 8.21712C2.49567 8.21712 2.4031 8.21712 2.31127 8.2223C2.01801 8.24081 1.8388 8.40521 1.74474 8.67402C1.69217 8.82509 1.69291 8.98208 1.69291 9.13981C1.69291 11.9938 1.69291 14.8478 1.69291 17.7018C1.69291 17.7758 1.69068 17.8499 1.69661 17.9232C1.73216 18.3883 1.97876 18.62 2.44753 18.6252C2.79855 18.6289 3.14958 18.6208 3.5006 18.6289C3.90642 18.6385 4.06861 18.8074 4.07305 19.2088C4.07601 19.4842 4.07305 19.7604 4.07305 20.0367L4.07601 20.0389Z" fill="black"/>
<path d="M17.2316 7.55498C17.2316 6.95592 17.2287 6.35686 17.2323 5.7578C17.2359 5.17008 17.5843 4.7905 18.2202 4.7378C18.7573 4.69377 19.3177 4.6344 19.7379 5.07202C19.8142 5.1514 19.8802 5.11405 19.9455 5.05734C20.0457 4.96995 20.1118 4.86188 20.1756 4.75114C20.4892 4.20745 20.8035 3.66376 21.12 3.12141C21.3043 2.80587 21.4408 2.74583 21.8226 2.80186C22.5426 2.90727 23.0652 3.46363 23.0754 4.13874C23.079 4.38023 23.0841 4.62172 23.0747 4.86255C23.066 5.07936 23.1705 5.15941 23.3999 5.15541C23.8521 5.1474 24.305 5.1494 24.7579 5.15407C25.5883 5.16274 26.1312 5.8065 25.9258 6.54432C25.7059 7.3335 25.4802 8.12135 25.2479 8.90786C25.0279 9.65368 24.6251 9.92853 23.7788 9.9292C22.7379 9.9292 21.697 9.9292 20.6561 9.9292C20.5654 9.9292 20.471 9.94454 20.3854 9.9252C20.0617 9.85315 19.8352 9.93253 19.592 10.168C19.2415 10.5069 18.7334 10.4302 18.2775 10.4022C17.6018 10.3608 17.2359 9.97656 17.233 9.35149C17.2301 8.75243 17.233 8.15337 17.233 7.55431L17.2316 7.55498ZM22.1891 9.14535C22.7139 9.14535 23.2394 9.14669 23.7642 9.14535C24.1831 9.14402 24.2919 9.0733 24.4001 8.70573C24.6149 7.97525 24.8233 7.24344 25.0338 6.51229C25.1615 6.066 25.0831 5.97728 24.5859 5.96861C24.0887 5.9606 23.5886 6.01063 23.095 5.93992C22.5492 5.86187 22.2334 5.51564 22.224 5.01198C22.2196 4.77916 22.2269 4.54567 22.2203 4.31285C22.2153 4.13807 22.1993 3.96262 22.0781 3.81453C21.9162 3.61707 21.8226 3.62374 21.6963 3.84121C21.4234 4.31085 21.1497 4.77983 20.879 5.2508C20.7265 5.51564 20.5262 5.74179 20.2221 5.85787C20.0174 5.93592 19.9717 6.05666 19.9738 6.24412C19.9825 7.06799 19.9891 7.89186 19.9709 8.71507C19.9651 8.98058 20.0675 9.10332 20.3447 9.12C20.4435 9.12601 20.5422 9.14268 20.6416 9.14268C21.1577 9.14535 21.6738 9.14402 22.1899 9.14402L22.1891 9.14535ZM19.089 7.56498C19.089 7.06599 19.089 6.56633 19.089 6.06734C19.0898 5.47161 19.1173 5.53499 18.496 5.53365C18.1469 5.53365 18.1215 5.55634 18.1215 5.87121C18.12 6.91989 18.1193 7.96791 18.1215 9.0166C18.1229 9.66569 18.0518 9.58631 18.7689 9.60165C19.0288 9.60699 19.0948 9.50292 19.0912 9.28744C19.0818 8.71374 19.0883 8.13936 19.0883 7.56498H19.089Z" fill="black"/>
<path d="M20.5086 22.4458C19.915 22.4417 19.4083 21.687 19.4152 20.8154C19.4222 19.8938 19.9171 19.1552 20.5172 19.1689C21.1173 19.1826 21.5977 19.9123 21.5999 20.813C21.602 21.6919 21.0953 22.4498 20.5086 22.4458ZM20.5151 21.4532C20.7657 21.4484 20.9397 21.1807 20.9397 20.8009C20.9397 20.4324 20.7555 20.1558 20.5092 20.1542C20.2553 20.1526 20.0674 20.4421 20.0738 20.8251C20.0803 21.1992 20.2623 21.458 20.5151 21.4532Z" fill="black"/>
<path d="M11.7687 20.8294C11.7655 19.8946 12.485 19.1623 13.4008 19.1687C14.3206 19.1752 15.045 19.9067 15.0458 20.8294C15.0458 21.6876 14.2907 22.4368 13.4161 22.4457C12.5197 22.4546 11.7719 21.7214 11.7687 20.8294ZM13.4145 21.4537C13.7819 21.4513 14.0622 21.1706 14.063 20.8044C14.0638 20.435 13.7585 20.1455 13.379 20.1535C13.0156 20.1616 12.7507 20.4487 12.7571 20.8254C12.7644 21.2077 13.0236 21.4561 13.4145 21.4529V21.4537Z" fill="black"/>
<path d="M18.3219 20.8214C18.3236 21.7175 17.5829 22.4498 16.681 22.4458C15.7961 22.4417 15.053 21.711 15.0457 20.8384C15.0384 19.9125 15.754 19.1809 16.6802 19.1689C17.6032 19.1568 18.3211 19.8794 18.3227 20.8214H18.3219ZM16.6794 21.4529C17.074 21.4529 17.3544 21.1803 17.3528 20.7988C17.3511 20.4472 17.0529 20.1552 16.694 20.1528C16.3163 20.1504 16.0125 20.4488 16.0214 20.8142C16.0295 21.1795 16.3115 21.4537 16.6794 21.4537V21.4529Z" fill="black"/>
</svg>
